<?xml version="1.0" encoding="UTF-8" standalone="no"?>
<svg width="163px" height="50px" viewBox="0 0 163 50" version="1.1" xmlns="http://www.w3.org/2000/svg" xmlns:xlink="http://www.w3.org/1999/xlink" xmlns:sketch="http://www.bohemiancoding.com/sketch/ns">
    <!-- Generator: Sketch 3.3.2 (12043) - http://www.bohemiancoding.com/sketch -->
    <title>app-store-btn</title>
    <desc>Created with Sketch.</desc>
    <defs></defs>
    <g id="Welcome" stroke="none" stroke-width="1" fill="none" fill-rule="evenodd" sketch:type="MSPage">
        <g id="Desktop-HD-Copy-3" sketch:type="MSArtboardGroup" transform="translate(-1009.000000, -49.000000)">
            <g id="app-store-btn" sketch:type="MSLayerGroup" transform="translate(1010.000000, 50.000000)">
                <path d="M161,43 C161,45.8466773 159.309261,48 157,48 L4,48 C1.69665778,48 0,45.8466773 0,43 L0,5 C0,2.15960426 1.69665778,0 4,0 L157,0 C159.310247,0 161,2.15960426 161,5 L161,43 L161,43 Z" id="Shape" stroke="#FFFFFF" fill-opacity="0.575747283" fill="#254657" sketch:type="MSShapeGroup"></path>
                <path d="M36.87125,23.70375 C36.83375,19.675 40.24,17.71375 40.395,17.62375 C38.46625,14.86875 35.47625,14.49125 34.4275,14.4625 C31.915,14.205 29.48,15.935 28.20125,15.935 C26.8975,15.935 24.92625,14.48875 22.805,14.5325 C20.07375,14.57375 17.5175,16.12125 16.115,18.52625 C13.2225,23.43 15.38,30.63875 18.15,34.6 C19.53625,36.54375 21.15625,38.70875 23.27625,38.6325 C25.35125,38.55 26.125,37.33875 28.63,37.33875 C31.11,37.33875 31.8375,38.6325 34,38.58375 C36.225,38.55 37.62875,36.635 38.96625,34.675 C40.56875,32.45 41.21125,30.26 41.2375,30.14625 C41.185,30.1275 36.915,28.53375 36.87125,23.70375 L36.87125,23.70375 Z" id="Shape" fill="#FFFFFF" sketch:type="MSShapeGroup"></path>
                <path d="M32.78625,11.85625 C33.90125,10.48875 34.66375,8.63125 34.4525,6.745 C32.8375,6.81375 30.8175,7.8375 29.655,9.175 C28.62625,10.35125 27.7075,12.2825 27.945,14.0975 C29.75875,14.23 31.62125,13.20125 32.78625,11.85625 L32.78625,11.85625 Z" id="Shape" fill="#FFFFFF" sketch:type="MSShapeGroup"></path>
                <path d="M67.34,38.37 L64.6575,38.37 L63.18625,33.75125 L58.0775,33.75125 L56.6775,38.37 L54.0625,38.37 L59.12625,22.6425 L62.2525,22.6425 L67.34,38.37 L67.34,38.37 Z M62.74375,31.815 L61.41375,27.70625 C61.27375,27.28625 61.00875,26.3 60.62,24.74375 L60.5725,24.74375 C60.41625,25.41375 60.1675,26.4 59.82625,27.70625 L58.52,31.815 L62.74375,31.815 L62.74375,31.815 Z" id="Shape" fill="#FFFFFF" sketch:type="MSShapeGroup"></path>
                <path d="M80.35875,32.56 C80.35875,34.49125 79.83875,36.015 78.79625,37.135 C77.86375,38.13125 76.70375,38.62625 75.32,38.62625 C73.82625,38.62625 72.75375,38.09125 72.1,37.0175 L72.05375,37.0175 L72.05375,42.99125 L69.53375,42.99125 L69.53375,30.7625 C69.53375,29.54875 69.5025,28.30625 69.43875,27.03 L71.655,27.03 L71.79625,28.8275 L71.8425,28.8275 C72.6825,27.475 73.95625,26.79875 75.66875,26.79875 C77.00625,26.79875 78.1225,27.32625 79.01875,28.38625 C79.9125,29.4425 80.35875,30.83375 80.35875,32.56 L80.35875,32.56 Z M77.7925,32.655 C77.7925,31.54875 77.54375,30.64125 77.045,29.9225 C76.5,29.1775 75.77,28.80375 74.8525,28.80375 C74.23,28.80375 73.66625,29.00875 73.16,29.42125 C72.65375,29.83375 72.3225,30.37375 72.16875,31.0425 C72.09125,31.355 72.05125,31.61125 72.05125,31.81375 L72.05125,33.70375 C72.05125,34.52875 72.3025,35.225 72.81,35.79125 C73.315,36.36 73.9725,36.64375 74.78,36.64375 C75.73,36.64375 76.4675,36.2775 76.99625,35.5475 C77.52875,34.815 77.7925,33.85125 77.7925,32.655 L77.7925,32.655 Z" id="Shape" fill="#FFFFFF" sketch:type="MSShapeGroup"></path>
                <path d="M93.40375,32.56 C93.40375,34.49125 92.88125,36.015 91.84125,37.135 C90.90625,38.13125 89.74875,38.62625 88.3625,38.62625 C86.87125,38.62625 85.79625,38.09125 85.145,37.0175 L85.09625,37.0175 L85.09625,42.99125 L82.57625,42.99125 L82.57625,30.7625 C82.57625,29.54875 82.545,28.30625 82.48375,27.03 L84.7,27.03 L84.83875,28.8275 L84.885,28.8275 C85.725,27.475 87.00125,26.79875 88.7125,26.79875 C90.05,26.79875 91.16625,27.32625 92.06,28.38625 C92.95625,29.4425 93.40375,30.83375 93.40375,32.56 L93.40375,32.56 Z M90.8375,32.655 C90.8375,31.54875 90.58875,30.64125 90.09,29.9225 C89.545,29.1775 88.81375,28.80375 87.895,28.80375 C87.2725,28.80375 86.70875,29.00875 86.2025,29.42125 C85.69625,29.83375 85.3675,30.37375 85.21125,31.0425 C85.13375,31.355 85.09375,31.61125 85.09375,31.81375 L85.09375,33.70375 C85.09375,34.52875 85.3475,35.225 85.8525,35.79125 C86.3575,36.36 87.015,36.64375 87.825,36.64375 C88.7725,36.64375 89.5125,36.2775 90.04125,35.5475 C90.57125,34.815 90.8375,33.85125 90.8375,32.655 L90.8375,32.655 Z" id="Shape" fill="#FFFFFF" sketch:type="MSShapeGroup"></path>
                <path d="M107.98625,33.96125 C107.98625,35.29875 107.52,36.3875 106.59,37.2275 C105.565,38.145 104.13625,38.605 102.305,38.605 C100.6125,38.605 99.25625,38.2775 98.23,37.62375 L98.81375,35.52375 C99.9175,36.1925 101.1325,36.5275 102.45375,36.5275 C103.40375,36.5275 104.14375,36.315 104.6725,35.885 C105.20125,35.455 105.46625,34.88375 105.46625,34.16625 C105.46625,33.52875 105.24875,32.99 104.8125,32.555 C104.3775,32.1175 103.655,31.7125 102.6425,31.33875 C99.89125,30.31125 98.51375,28.8075 98.51375,26.8275 C98.51375,25.53375 98.995,24.475 99.95875,23.65 C100.9225,22.82375 102.2075,22.41125 103.80875,22.41125 C105.24125,22.41125 106.43125,22.66 107.38,23.15875 L106.75,25.2125 C105.86125,24.73 104.8575,24.48875 103.74,24.48875 C102.85125,24.48875 102.16,24.7075 101.6625,25.1425 C101.2425,25.53 101.0325,26.00625 101.0325,26.565 C101.0325,27.1875 101.27375,27.7 101.755,28.105 C102.175,28.47875 102.93625,28.88375 104.0425,29.31875 C105.395,29.86375 106.39125,30.5 107.02875,31.2325 C107.66875,31.96125 107.98625,32.8725 107.98625,33.96125 L107.98625,33.96125 Z" id="Shape" fill="#FFFFFF" sketch:type="MSShapeGroup"></path>
                <path d="M116.31625,28.92 L113.5375,28.92 L113.5375,34.4275 C113.5375,35.82625 114.02875,36.5275 115.01,36.5275 C115.45875,36.5275 115.8325,36.48875 116.12875,36.41 L116.2,38.32375 C115.7025,38.51125 115.0475,38.605 114.24,38.605 C113.24375,38.605 112.4675,38.3025 111.90625,37.69375 C111.3475,37.08875 111.06625,36.0675 111.06625,34.6375 L111.06625,28.92 L109.41125,28.92 L109.41125,27.03 L111.06625,27.03 L111.06625,24.95375 L113.54,24.20625 L113.54,27.02875 L116.31875,27.02875 L116.31875,28.92 L116.31625,28.92 Z" id="Shape" fill="#FFFFFF" sketch:type="MSShapeGroup"></path>
                <path d="M128.845,32.60625 C128.845,34.35 128.3475,35.78 127.35375,36.90125 C126.31125,38.05375 124.9275,38.6275 123.19875,38.6275 C121.53375,38.6275 120.2075,38.07625 119.22125,36.9725 C118.2325,35.86625 117.73875,34.475 117.73875,32.795 C117.73875,31.0375 118.24625,29.59875 119.2675,28.47875 C120.285,27.35875 121.66,26.79875 123.38625,26.79875 C125.05125,26.79875 126.38625,27.35 127.4,28.45375 C128.36375,29.5275 128.845,30.91125 128.845,32.60625 L128.845,32.60625 Z M126.2325,32.68875 C126.2325,31.64375 126.005,30.745 125.55625,29.99875 C125.02625,29.0925 124.2725,28.64125 123.2925,28.64125 C122.27875,28.64125 121.51,29.0925 120.98,29.99875 C120.52875,30.74625 120.30375,31.65875 120.30375,32.735 C120.30375,33.78 120.52875,34.67875 120.98,35.425 C121.525,36.33125 122.28875,36.7825 123.2675,36.7825 C124.23125,36.7825 124.98625,36.32375 125.53125,35.4025 C125.99875,34.64 126.2325,33.73375 126.2325,32.68875 L126.2325,32.68875 Z" id="Shape" fill="#FFFFFF" sketch:type="MSShapeGroup"></path>
                <path d="M137.03625,29.24625 C136.7875,29.2 136.52375,29.1775 136.2425,29.1775 C135.35625,29.1775 134.67,29.5125 134.18875,30.17875 C133.76875,30.7725 133.55875,31.51875 133.55875,32.42 L133.55875,38.37 L131.03875,38.37 L131.06125,30.60125 C131.06125,29.2925 131.03,28.10375 130.96875,27.03 L133.16125,27.03 L133.25625,29.2 L133.325,29.2 C133.59125,28.4525 134.01125,27.855 134.585,27.4025 C135.14625,27 135.7525,26.7975 136.40625,26.7975 C136.64125,26.7975 136.85,26.8125 137.03625,26.84375 L137.03625,29.24625 L137.03625,29.24625 Z" id="Shape" fill="#FFFFFF" sketch:type="MSShapeGroup"></path>
                <path d="M148.30625,32.16375 C148.30625,32.615 148.275,32.99625 148.21375,33.30625 L140.6525,33.30625 C140.68375,34.42625 141.05,35.28125 141.75125,35.875 C142.38875,36.4025 143.21125,36.66875 144.225,36.66875 C145.34375,36.66875 146.36375,36.4875 147.28125,36.13125 L147.67625,37.88125 C146.605,38.3475 145.335,38.58 143.8725,38.58 C142.115,38.58 140.735,38.065 139.7325,37.03 C138.73,35.995 138.22625,34.60625 138.22625,32.865 C138.22625,31.15375 138.6925,29.73 139.6275,28.595 C140.60625,27.38125 141.93,26.77375 143.595,26.77375 C145.22875,26.77375 146.46375,27.38125 147.30375,28.595 C147.97125,29.55875 148.30625,30.7475 148.30625,32.16375 L148.30625,32.16375 Z M145.90375,31.51 C145.91875,30.7625 145.755,30.11875 145.4125,29.57375 C144.9775,28.8725 144.30875,28.52375 143.40625,28.52375 C142.58125,28.52375 141.9125,28.865 141.4,29.54875 C140.98,30.09625 140.73125,30.7475 140.6525,31.50875 L145.90375,31.50875 L145.90375,31.51 Z" id="Shape" fill="#FFFFFF" sketch:type="MSShapeGroup"></path>
                <path d="M59.95,11.51125 C59.95,12.9825 59.50875,14.09 58.6275,14.83375 C57.81125,15.52 56.65125,15.86375 55.14875,15.86375 C54.40375,15.86375 53.76625,15.83125 53.2325,15.76625 L53.2325,7.7275 C53.92875,7.615 54.67875,7.5575 55.48875,7.5575 C56.92,7.5575 57.99875,7.86875 58.72625,8.49125 C59.54125,9.195 59.95,10.20125 59.95,11.51125 L59.95,11.51125 Z M58.5675,11.5475 C58.5675,10.59375 58.315,9.8625 57.81,9.3525 C57.305,8.84375 56.5675,8.58875 55.59625,8.58875 C55.18375,8.58875 54.8325,8.61625 54.54125,8.67375 L54.54125,14.785 C54.7025,14.81 54.9975,14.82125 55.42625,14.82125 C56.42875,14.82125 57.2025,14.5425 57.7475,13.985 C58.2925,13.4275 58.5675,12.615 58.5675,11.5475 L58.5675,11.5475 Z" id="Shape" fill="#FFFFFF" sketch:type="MSShapeGroup"></path>
                <path d="M67.2725,12.79625 C67.2725,13.7025 67.01375,14.445 66.49625,15.0275 C65.95375,15.62625 65.235,15.925 64.3375,15.925 C63.4725,15.925 62.78375,15.63875 62.27,15.06375 C61.7575,14.49 61.50125,13.76625 61.50125,12.89375 C61.50125,11.98125 61.765,11.2325 62.295,10.65125 C62.825,10.07 63.5375,9.77875 64.435,9.77875 C65.3,9.77875 65.995,10.065 66.52125,10.63875 C67.02125,11.19625 67.2725,11.91625 67.2725,12.79625 L67.2725,12.79625 Z M65.91375,12.83875 C65.91375,12.295 65.79625,11.82875 65.5625,11.44 C65.2875,10.97 64.89625,10.735 64.3875,10.735 C63.86125,10.735 63.46125,10.97 63.18625,11.44 C62.95125,11.82875 62.835,12.3025 62.835,12.8625 C62.835,13.40625 62.9525,13.8725 63.18625,14.26125 C63.47,14.73125 63.865,14.96625 64.375,14.96625 C64.875,14.96625 65.2675,14.7275 65.55,14.24875 C65.79375,13.8525 65.91375,13.3825 65.91375,12.83875 L65.91375,12.83875 Z" id="Shape" fill="#FFFFFF" sketch:type="MSShapeGroup"></path>
                <path d="M77.09375,9.89875 L75.25,15.79125 L74.05,15.79125 L73.28625,13.2325 C73.0925,12.59375 72.935,11.95875 72.8125,11.32875 L72.78875,11.32875 C72.675,11.97625 72.5175,12.61 72.315,13.2325 L71.50375,15.79125 L70.29,15.79125 L68.55625,9.89875 L69.9025,9.89875 L70.56875,12.7 C70.73,13.3625 70.8625,13.99375 70.96875,14.59125 L70.9925,14.59125 C71.09,14.09875 71.25125,13.47125 71.47875,12.7125 L72.315,9.9 L73.3825,9.9 L74.18375,12.6525 C74.3775,13.32375 74.535,13.97 74.65625,14.5925 L74.6925,14.5925 C74.78125,13.98625 74.915,13.34 75.0925,12.6525 L75.8075,9.9 L77.09375,9.9 L77.09375,9.89875 Z" id="Shape" fill="#FFFFFF" sketch:type="MSShapeGroup"></path>
                <path d="M83.88375,15.79125 L82.575,15.79125 L82.575,12.41625 C82.575,11.37625 82.18,10.85625 81.3875,10.85625 C80.99875,10.85625 80.685,10.99875 80.44125,11.285 C80.2,11.57125 80.0775,11.90875 80.0775,12.295 L80.0775,15.79 L78.7675,15.79 L78.7675,11.5825 C78.7675,11.065 78.75125,10.50375 78.72,9.89625 L79.87125,9.89625 L79.9325,10.8175 L79.96875,10.8175 C80.12125,10.53125 80.34875,10.295 80.6475,10.10625 C81.0025,9.88625 81.4,9.775 81.835,9.775 C82.385,9.775 82.8425,9.9525 83.20625,10.30875 C83.65875,10.745 83.885,11.39625 83.885,12.26125 L83.885,15.79125 L83.88375,15.79125 Z" id="Shape" fill="#FFFFFF" sketch:type="MSShapeGroup"></path>
                <path d="M87.4975,15.79125 L86.1875,15.79125 L86.1875,7.195 L87.4975,7.195 L87.4975,15.79125 L87.4975,15.79125 Z" id="Shape" fill="#FFFFFF" sketch:type="MSShapeGroup"></path>
                <path d="M95.20875,12.79625 C95.20875,13.7025 94.95,14.445 94.4325,15.0275 C93.89,15.62625 93.17125,15.925 92.27375,15.925 C91.40875,15.925 90.72,15.63875 90.20625,15.06375 C89.69375,14.49 89.4375,13.76625 89.4375,12.89375 C89.4375,11.98125 89.70125,11.2325 90.23125,10.65125 C90.76125,10.07 91.47375,9.77875 92.37125,9.77875 C93.23625,9.77875 93.93125,10.065 94.4575,10.63875 C94.9575,11.19625 95.20875,11.91625 95.20875,12.79625 L95.20875,12.79625 Z M93.85,12.83875 C93.85,12.295 93.7325,11.82875 93.49875,11.44 C93.22375,10.97 92.8325,10.735 92.32375,10.735 C91.7975,10.735 91.3975,10.97 91.1225,11.44 C90.8875,11.82875 90.77125,12.3025 90.77125,12.8625 C90.77125,13.40625 90.88875,13.8725 91.1225,14.26125 C91.40625,14.73125 91.80125,14.96625 92.31125,14.96625 C92.81125,14.96625 93.20375,14.7275 93.48625,14.24875 C93.72875,13.8525 93.85,13.3825 93.85,12.83875 L93.85,12.83875 Z" id="Shape" fill="#FFFFFF" sketch:type="MSShapeGroup"></path>
                <path d="M101.54875,15.79125 L100.3725,15.79125 L100.27625,15.1125 L100.24,15.1125 C99.83625,15.65375 99.2625,15.925 98.51875,15.925 C97.96125,15.925 97.51125,15.74625 97.1725,15.39125 C96.865,15.06875 96.7125,14.6675 96.7125,14.19125 C96.7125,13.47125 97.0125,12.9225 97.61625,12.5425 C98.2175,12.1625 99.065,11.97625 100.15625,11.985 L100.15625,11.875 C100.15625,11.09875 99.74875,10.71125 98.93375,10.71125 C98.3525,10.71125 97.84,10.8575 97.3975,11.1475 L97.13125,10.2875 C97.67875,9.94875 98.355,9.77875 99.1525,9.77875 C100.69375,9.77875 101.465,10.59125 101.465,12.21625 L101.465,14.38625 C101.46375,14.975 101.4925,15.44375 101.54875,15.79125 L101.54875,15.79125 Z M100.19,13.76625 L100.19,12.8575 C98.74375,12.8325 98.02125,13.22875 98.02125,14.045 C98.02125,14.3525 98.105,14.5825 98.27375,14.73625 C98.4425,14.89 98.65625,14.96625 98.9125,14.96625 C99.20125,14.96625 99.46875,14.875 99.715,14.69375 C99.96125,14.5125 100.11125,14.28 100.1675,13.99625 C100.1825,13.9325 100.19,13.855 100.19,13.76625 L100.19,13.76625 Z" id="Shape" fill="#FFFFFF" sketch:type="MSShapeGroup"></path>
                <path d="M108.99375,15.79125 L107.83,15.79125 L107.76875,14.845 L107.7325,14.845 C107.36125,15.565 106.73,15.925 105.84125,15.925 C105.13,15.925 104.54,15.64625 104.07125,15.08875 C103.6025,14.53125 103.36875,13.8075 103.36875,12.91875 C103.36875,11.965 103.6225,11.1925 104.13125,10.6025 C104.625,10.0525 105.23125,9.7775 105.95,9.7775 C106.7425,9.7775 107.29625,10.04375 107.61125,10.5775 L107.63625,10.5775 L107.63625,7.195 L108.94625,7.195 L108.94625,14.20375 C108.94625,14.7775 108.9625,15.30625 108.99375,15.79125 L108.99375,15.79125 Z M107.63625,13.30625 L107.63625,12.32375 C107.63625,12.15375 107.62375,12.01625 107.6,11.91125 C107.52625,11.59625 107.3675,11.33125 107.125,11.1175 C106.88125,10.90375 106.58875,10.79625 106.24875,10.79625 C105.76125,10.79625 105.37875,10.99 105.0975,11.37875 C104.8175,11.7675 104.6775,12.26375 104.6775,12.87 C104.6775,13.4525 104.81125,13.925 105.08,14.28875 C105.36375,14.67625 105.745,14.87 106.22375,14.87 C106.65375,14.87 106.99875,14.70875 107.25875,14.385 C107.51125,14.08625 107.63625,13.72625 107.63625,13.30625 L107.63625,13.30625 Z" id="Shape" fill="#FFFFFF" sketch:type="MSShapeGroup"></path>
                <path d="M120.1975,12.79625 C120.1975,13.7025 119.93875,14.445 119.42125,15.0275 C118.87875,15.62625 118.16,15.925 117.2625,15.925 C116.3975,15.925 115.70875,15.63875 115.195,15.06375 C114.6825,14.49 114.42625,13.76625 114.42625,12.89375 C114.42625,11.98125 114.69,11.2325 115.22,10.65125 C115.75,10.07 116.4625,9.77875 117.36,9.77875 C118.225,9.77875 118.92,10.065 119.44625,10.63875 C119.94625,11.19625 120.1975,11.91625 120.1975,12.79625 L120.1975,12.79625 Z M118.83875,12.83875 C118.83875,12.295 118.72125,11.82875 118.4875,11.44 C118.2125,10.97 117.82125,10.735 117.3125,10.735 C116.78625,10.735 116.38625,10.97 116.11125,11.44 C115.87625,11.82875 115.76,12.3025 115.76,12.8625 C115.76,13.40625 115.8775,13.8725 116.11125,14.26125 C116.395,14.73125 116.79,14.96625 117.3,14.96625 C117.8,14.96625 118.1925,14.7275 118.475,14.24875 C118.71875,13.8525 118.83875,13.3825 118.83875,12.83875 L118.83875,12.83875 Z" id="Shape" fill="#FFFFFF" sketch:type="MSShapeGroup"></path>
                <path d="M127.24125,15.79125 L125.93125,15.79125 L125.93125,12.41625 C125.93125,11.37625 125.53625,10.85625 124.74375,10.85625 C124.355,10.85625 124.04125,10.99875 123.7975,11.285 C123.55625,11.57125 123.43375,11.90875 123.43375,12.295 L123.43375,15.79 L122.12375,15.79 L122.12375,11.5825 C122.12375,11.065 122.1075,10.50375 122.07625,9.89625 L123.2275,9.89625 L123.28875,10.8175 L123.325,10.8175 C123.4775,10.53125 123.705,10.295 124.00375,10.10625 C124.35875,9.88625 124.75625,9.775 125.19125,9.775 C125.74125,9.775 126.19875,9.9525 126.5625,10.30875 C127.015,10.745 127.24125,11.39625 127.24125,12.26125 L127.24125,15.79125 L127.24125,15.79125 Z" id="Shape" fill="#FFFFFF" sketch:type="MSShapeGroup"></path>
                <path d="M136.0575,10.88 L134.615,10.88 L134.615,13.7425 C134.615,14.47 134.87,14.83375 135.37875,14.83375 C135.61375,14.83375 135.8075,14.81375 135.96125,14.7725 L135.99625,15.76625 C135.7375,15.86375 135.3975,15.9125 134.97875,15.9125 C134.46125,15.9125 134.0575,15.755 133.76625,15.44 C133.475,15.125 133.32875,14.595 133.32875,13.85125 L133.32875,10.88 L132.46875,10.88 L132.46875,9.89875 L133.32875,9.89875 L133.32875,8.81875 L134.61375,8.43125 L134.61375,9.8975 L136.05625,9.8975 L136.05625,10.88 L136.0575,10.88 Z" id="Shape" fill="#FFFFFF" sketch:type="MSShapeGroup"></path>
                <path d="M143.0525,15.79125 L141.7425,15.79125 L141.7425,12.44125 C141.7425,11.385 141.3475,10.85625 140.555,10.85625 C139.94875,10.85625 139.5325,11.1625 139.30625,11.775 C139.26625,11.90375 139.245,12.06125 139.245,12.24625 L139.245,15.79 L137.935,15.79 L137.935,7.195 L139.245,7.195 L139.245,10.74625 L139.27,10.74625 C139.6825,10.1 140.2725,9.7775 141.04,9.7775 C141.5825,9.7775 142.03,9.955 142.38625,10.31125 C142.83,10.755 143.0525,11.415 143.0525,12.2875 L143.0525,15.79125 L143.0525,15.79125 Z" id="Shape" fill="#FFFFFF" sketch:type="MSShapeGroup"></path>
                <path d="M149.84375,12.56625 C149.84375,12.80125 149.82625,12.99875 149.795,13.16 L145.86625,13.16 C145.8825,13.7425 146.07125,14.18625 146.435,14.49375 C146.7675,14.76875 147.195,14.90625 147.72,14.90625 C148.3025,14.90625 148.8325,14.81375 149.30875,14.6275 L149.51375,15.5375 C148.95625,15.78 148.2975,15.90125 147.5375,15.90125 C146.625,15.90125 145.90625,15.6325 145.385,15.095 C144.86375,14.5575 144.60375,13.83625 144.60375,12.93125 C144.60375,12.0425 144.845,11.3025 145.33125,10.7125 C145.84,10.0825 146.52625,9.7675 147.39125,9.7675 C148.24,9.7675 148.8825,10.0825 149.31875,10.7125 C149.66875,11.2125 149.84375,11.83125 149.84375,12.56625 L149.84375,12.56625 Z M148.59375,12.2275 C148.6025,11.83875 148.51625,11.50375 148.34,11.22125 C148.1125,10.8575 147.76625,10.675 147.2975,10.675 C146.86875,10.675 146.52125,10.8525 146.25375,11.20875 C146.03625,11.4925 145.9075,11.83125 145.86625,12.2275 L148.59375,12.2275 L148.59375,12.2275 Z" id="Shape" fill="#FFFFFF" sketch:type="MSShapeGroup"></path>
            </g>
        </g>
    </g>
</svg>