<?xml version="1.0" encoding="UTF-8" standalone="no"?>
<svg width="57px" height="57px" viewBox="0 0 57 57" version="1.1" xmlns="http://www.w3.org/2000/svg" xmlns:xlink="http://www.w3.org/1999/xlink" xmlns:sketch="http://www.bohemiancoding.com/sketch/ns">
    <!-- Generator: Sketch 3.3.2 (12043) - http://www.bohemiancoding.com/sketch -->
    <title>logs</title>
    <desc>Created with Sketch.</desc>
    <defs></defs>
    <g id="Welcome" stroke="none" stroke-width="1" fill="none" fill-rule="evenodd" sketch:type="MSPage">
        <g id="Desktop-HD-Copy-4" sketch:type="MSArtboardGroup" transform="translate(-151.000000, -4298.000000)">
            <g id="index-icons" sketch:type="MSLayerGroup" transform="translate(151.000000, 4299.000000)">
                <g id="logs" transform="translate(1.000000, 0.000000)" sketch:type="MSShapeGroup">
                    <rect id="Rectangle-2-Copy-7" stroke="#42CBB4" stroke-width="2" x="0" y="0" width="55" height="55" rx="8"></rect>
                    <rect id="Rectangle-221" fill="#D0D6D8" x="19" y="9" width="25" height="3"></rect>
                    <rect id="Rectangle-221-Copy" fill="#D0D6D8" x="11" y="9" width="7" height="3"></rect>
                    <rect id="Rectangle-221-Copy-17" fill="#D0D6D8" x="19" y="14" width="25" height="3"></rect>
                    <rect id="Rectangle-221-Copy-16" fill="#D0D6D8" x="11" y="14" width="7" height="3"></rect>
                    <rect id="Rectangle-221-Copy-21" fill="#D0D6D8" x="19" y="19" width="25" height="3"></rect>
                    <rect id="Rectangle-221-Copy-20" fill="#D0D6D8" x="11" y="19" width="7" height="3"></rect>
                    <rect id="Rectangle-221-Copy-23" fill="#D0D6D8" x="19" y="24" width="25" height="3"></rect>
                    <rect id="Rectangle-221-Copy-22" fill="#D0D6D8" x="11" y="24" width="7" height="3"></rect>
                    <rect id="Rectangle-221-Copy-25" fill="#D0D6D8" x="19" y="29" width="25" height="3"></rect>
                    <rect id="Rectangle-221-Copy-24" fill="#D0D6D8" x="11" y="29" width="7" height="3"></rect>
                    <rect id="Rectangle-221-Copy-27" fill="#D0D6D8" x="19" y="34" width="25" height="3"></rect>
                    <rect id="Rectangle-221-Copy-26" fill="#D0D6D8" x="11" y="34" width="7" height="3"></rect>
                    <rect id="Rectangle-221-Copy-29" fill="#D0D6D8" x="19" y="39" width="25" height="3"></rect>
                    <rect id="Rectangle-221-Copy-28" fill="#D0D6D8" x="11" y="39" width="7" height="3"></rect>
                    <rect id="Rectangle-221-Copy-31" fill="#D0D6D8" x="19" y="44" width="25" height="3"></rect>
                    <rect id="Rectangle-221-Copy-30" fill="#D0D6D8" x="11" y="44" width="7" height="3"></rect>
                </g>
            </g>
        </g>
    </g>
</svg>