<?xml version="1.0" encoding="UTF-8" standalone="no"?>
<svg width="206px" height="50px" viewBox="0 0 206 50" version="1.1" xmlns="http://www.w3.org/2000/svg" xmlns:xlink="http://www.w3.org/1999/xlink" xmlns:sketch="http://www.bohemiancoding.com/sketch/ns">
    <!-- Generator: Sketch 3.3.2 (12043) - http://www.bohemiancoding.com/sketch -->
    <title>mac-app-store-btn</title>
    <desc>Created with Sketch.</desc>
    <defs></defs>
    <g id="Welcome" stroke="none" stroke-width="1" fill="none" fill-rule="evenodd" sketch:type="MSPage">
        <g id="Desktop-HD-Copy-3" sketch:type="MSArtboardGroup" transform="translate(-1181.000000, -49.000000)">
            <g id="mac-app-store-btn" sketch:type="MSLayerGroup" transform="translate(1182.000000, 50.000000)">
                <path d="M204,43 C204,45.8466773 201.857697,48 199,48 L5,48 C2.14980241,48 0,45.8466773 0,43 L0,5 C0,2.15960426 2.14980241,0 5,0 L199,0 C201.858947,0 204,2.15960426 204,5 L204,43 L204,43 Z" id="Shape" stroke="#FFFFFF" fill-opacity="0.575747283" fill="#254657" sketch:type="MSShapeGroup"></path>
                <path d="M37.12125,23.70375 C37.08375,19.675 40.49,17.71375 40.645,17.62375 C38.71625,14.86875 35.72625,14.49125 34.6775,14.4625 C32.165,14.205 29.73,15.935 28.45125,15.935 C27.1475,15.935 25.17625,14.48875 23.055,14.5325 C20.32375,14.57375 17.7675,16.12125 16.365,18.52625 C13.4725,23.43 15.63,30.63875 18.4,34.6 C19.78625,36.54375 21.40625,38.70875 23.52625,38.6325 C25.60125,38.55 26.375,37.33875 28.88,37.33875 C31.36,37.33875 32.0875,38.6325 34.25,38.58375 C36.475,38.55 37.87875,36.635 39.21625,34.675 C40.81875,32.45 41.46125,30.26 41.4875,30.14625 C41.435,30.1275 37.165,28.53375 37.12125,23.70375 L37.12125,23.70375 Z" id="Shape" fill="#FFFFFF" sketch:type="MSShapeGroup"></path>
                <path d="M33.03625,11.85625 C34.15125,10.48875 34.91375,8.63125 34.7025,6.745 C33.0875,6.81375 31.0675,7.8375 29.905,9.175 C28.87625,10.35125 27.9575,12.2825 28.195,14.0975 C30.00875,14.23 31.87125,13.20125 33.03625,11.85625 L33.03625,11.85625 Z" id="Shape" fill="#FFFFFF" sketch:type="MSShapeGroup"></path>
                <path d="M60.2,11.51125 C60.2,12.9825 59.75875,14.09 58.8775,14.83375 C58.06125,15.52 56.90125,15.86375 55.39875,15.86375 C54.65375,15.86375 54.01625,15.83125 53.4825,15.76625 L53.4825,7.7275 C54.17875,7.615 54.92875,7.5575 55.73875,7.5575 C57.17,7.5575 58.24875,7.86875 58.97625,8.49125 C59.79125,9.195 60.2,10.20125 60.2,11.51125 L60.2,11.51125 Z M58.8175,11.5475 C58.8175,10.59375 58.565,9.8625 58.06,9.3525 C57.555,8.84375 56.8175,8.58875 55.84625,8.58875 C55.43375,8.58875 55.0825,8.61625 54.79125,8.67375 L54.79125,14.785 C54.9525,14.81 55.2475,14.82125 55.67625,14.82125 C56.67875,14.82125 57.4525,14.5425 57.9975,13.985 C58.5425,13.4275 58.8175,12.615 58.8175,11.5475 L58.8175,11.5475 Z" id="Shape" fill="#FFFFFF" sketch:type="MSShapeGroup"></path>
                <path d="M67.5225,12.79625 C67.5225,13.7025 67.26375,14.445 66.74625,15.0275 C66.20375,15.62625 65.485,15.925 64.5875,15.925 C63.7225,15.925 63.03375,15.63875 62.52,15.06375 C62.0075,14.49 61.75125,13.76625 61.75125,12.89375 C61.75125,11.98125 62.015,11.2325 62.545,10.65125 C63.075,10.07 63.7875,9.77875 64.685,9.77875 C65.55,9.77875 66.245,10.065 66.77125,10.63875 C67.27125,11.19625 67.5225,11.91625 67.5225,12.79625 L67.5225,12.79625 Z M66.16375,12.83875 C66.16375,12.295 66.04625,11.82875 65.8125,11.44 C65.5375,10.97 65.14625,10.735 64.6375,10.735 C64.11125,10.735 63.71125,10.97 63.43625,11.44 C63.20125,11.82875 63.085,12.3025 63.085,12.8625 C63.085,13.40625 63.2025,13.8725 63.43625,14.26125 C63.72,14.73125 64.115,14.96625 64.625,14.96625 C65.125,14.96625 65.5175,14.7275 65.8,14.24875 C66.04375,13.8525 66.16375,13.3825 66.16375,12.83875 L66.16375,12.83875 Z" id="Shape" fill="#FFFFFF" sketch:type="MSShapeGroup"></path>
                <path d="M77.34375,9.89875 L75.5,15.79125 L74.3,15.79125 L73.53625,13.2325 C73.3425,12.59375 73.185,11.95875 73.0625,11.32875 L73.03875,11.32875 C72.925,11.97625 72.7675,12.61 72.565,13.2325 L71.75375,15.79125 L70.54,15.79125 L68.80625,9.89875 L70.1525,9.89875 L70.81875,12.7 C70.98,13.3625 71.1125,13.99375 71.21875,14.59125 L71.2425,14.59125 C71.34,14.09875 71.50125,13.47125 71.72875,12.7125 L72.565,9.9 L73.6325,9.9 L74.43375,12.6525 C74.6275,13.32375 74.785,13.97 74.90625,14.5925 L74.9425,14.5925 C75.03125,13.98625 75.165,13.34 75.3425,12.6525 L76.0575,9.9 L77.34375,9.9 L77.34375,9.89875 Z" id="Shape" fill="#FFFFFF" sketch:type="MSShapeGroup"></path>
                <path d="M84.13375,15.79125 L82.825,15.79125 L82.825,12.41625 C82.825,11.37625 82.43,10.85625 81.6375,10.85625 C81.24875,10.85625 80.935,10.99875 80.69125,11.285 C80.45,11.57125 80.3275,11.90875 80.3275,12.295 L80.3275,15.79 L79.0175,15.79 L79.0175,11.5825 C79.0175,11.065 79.00125,10.50375 78.97,9.89625 L80.12125,9.89625 L80.1825,10.8175 L80.21875,10.8175 C80.37125,10.53125 80.59875,10.295 80.8975,10.10625 C81.2525,9.88625 81.65,9.775 82.085,9.775 C82.635,9.775 83.0925,9.9525 83.45625,10.30875 C83.90875,10.745 84.135,11.39625 84.135,12.26125 L84.135,15.79125 L84.13375,15.79125 Z" id="Shape" fill="#FFFFFF" sketch:type="MSShapeGroup"></path>
                <path d="M87.7475,15.79125 L86.4375,15.79125 L86.4375,7.195 L87.7475,7.195 L87.7475,15.79125 L87.7475,15.79125 Z" id="Shape" fill="#FFFFFF" sketch:type="MSShapeGroup"></path>
                <path d="M95.45875,12.79625 C95.45875,13.7025 95.2,14.445 94.6825,15.0275 C94.14,15.62625 93.42125,15.925 92.52375,15.925 C91.65875,15.925 90.97,15.63875 90.45625,15.06375 C89.94375,14.49 89.6875,13.76625 89.6875,12.89375 C89.6875,11.98125 89.95125,11.2325 90.48125,10.65125 C91.01125,10.07 91.72375,9.77875 92.62125,9.77875 C93.48625,9.77875 94.18125,10.065 94.7075,10.63875 C95.2075,11.19625 95.45875,11.91625 95.45875,12.79625 L95.45875,12.79625 Z M94.1,12.83875 C94.1,12.295 93.9825,11.82875 93.74875,11.44 C93.47375,10.97 93.0825,10.735 92.57375,10.735 C92.0475,10.735 91.6475,10.97 91.3725,11.44 C91.1375,11.82875 91.02125,12.3025 91.02125,12.8625 C91.02125,13.40625 91.13875,13.8725 91.3725,14.26125 C91.65625,14.73125 92.05125,14.96625 92.56125,14.96625 C93.06125,14.96625 93.45375,14.7275 93.73625,14.24875 C93.97875,13.8525 94.1,13.3825 94.1,12.83875 L94.1,12.83875 Z" id="Shape" fill="#FFFFFF" sketch:type="MSShapeGroup"></path>
                <path d="M101.79875,15.79125 L100.6225,15.79125 L100.52625,15.1125 L100.49,15.1125 C100.08625,15.65375 99.5125,15.925 98.76875,15.925 C98.21125,15.925 97.76125,15.74625 97.4225,15.39125 C97.115,15.06875 96.9625,14.6675 96.9625,14.19125 C96.9625,13.47125 97.2625,12.9225 97.86625,12.5425 C98.4675,12.1625 99.315,11.97625 100.40625,11.985 L100.40625,11.875 C100.40625,11.09875 99.99875,10.71125 99.18375,10.71125 C98.6025,10.71125 98.09,10.8575 97.6475,11.1475 L97.38125,10.2875 C97.92875,9.94875 98.605,9.77875 99.4025,9.77875 C100.94375,9.77875 101.715,10.59125 101.715,12.21625 L101.715,14.38625 C101.71375,14.975 101.7425,15.44375 101.79875,15.79125 L101.79875,15.79125 Z M100.44,13.76625 L100.44,12.8575 C98.99375,12.8325 98.27125,13.22875 98.27125,14.045 C98.27125,14.3525 98.355,14.5825 98.52375,14.73625 C98.6925,14.89 98.90625,14.96625 99.1625,14.96625 C99.45125,14.96625 99.71875,14.875 99.965,14.69375 C100.21125,14.5125 100.36125,14.28 100.4175,13.99625 C100.4325,13.9325 100.44,13.855 100.44,13.76625 L100.44,13.76625 Z" id="Shape" fill="#FFFFFF" sketch:type="MSShapeGroup"></path>
                <path d="M109.24375,15.79125 L108.08,15.79125 L108.01875,14.845 L107.9825,14.845 C107.61125,15.565 106.98,15.925 106.09125,15.925 C105.38,15.925 104.79,15.64625 104.32125,15.08875 C103.8525,14.53125 103.61875,13.8075 103.61875,12.91875 C103.61875,11.965 103.8725,11.1925 104.38125,10.6025 C104.875,10.0525 105.48125,9.7775 106.2,9.7775 C106.9925,9.7775 107.54625,10.04375 107.86125,10.5775 L107.88625,10.5775 L107.88625,7.195 L109.19625,7.195 L109.19625,14.20375 C109.19625,14.7775 109.2125,15.30625 109.24375,15.79125 L109.24375,15.79125 Z M107.88625,13.30625 L107.88625,12.32375 C107.88625,12.15375 107.87375,12.01625 107.85,11.91125 C107.77625,11.59625 107.6175,11.33125 107.375,11.1175 C107.13125,10.90375 106.83875,10.79625 106.49875,10.79625 C106.01125,10.79625 105.62875,10.99 105.3475,11.37875 C105.0675,11.7675 104.9275,12.26375 104.9275,12.87 C104.9275,13.4525 105.06125,13.925 105.33,14.28875 C105.61375,14.67625 105.995,14.87 106.47375,14.87 C106.90375,14.87 107.24875,14.70875 107.50875,14.385 C107.76125,14.08625 107.88625,13.72625 107.88625,13.30625 L107.88625,13.30625 Z" id="Shape" fill="#FFFFFF" sketch:type="MSShapeGroup"></path>
                <path d="M120.4475,12.79625 C120.4475,13.7025 120.18875,14.445 119.67125,15.0275 C119.12875,15.62625 118.41,15.925 117.5125,15.925 C116.6475,15.925 115.95875,15.63875 115.445,15.06375 C114.9325,14.49 114.67625,13.76625 114.67625,12.89375 C114.67625,11.98125 114.94,11.2325 115.47,10.65125 C116,10.07 116.7125,9.77875 117.61,9.77875 C118.475,9.77875 119.17,10.065 119.69625,10.63875 C120.19625,11.19625 120.4475,11.91625 120.4475,12.79625 L120.4475,12.79625 Z M119.08875,12.83875 C119.08875,12.295 118.97125,11.82875 118.7375,11.44 C118.4625,10.97 118.07125,10.735 117.5625,10.735 C117.03625,10.735 116.63625,10.97 116.36125,11.44 C116.12625,11.82875 116.01,12.3025 116.01,12.8625 C116.01,13.40625 116.1275,13.8725 116.36125,14.26125 C116.645,14.73125 117.04,14.96625 117.55,14.96625 C118.05,14.96625 118.4425,14.7275 118.725,14.24875 C118.96875,13.8525 119.08875,13.3825 119.08875,12.83875 L119.08875,12.83875 Z" id="Shape" fill="#FFFFFF" sketch:type="MSShapeGroup"></path>
                <path d="M127.49125,15.79125 L126.18125,15.79125 L126.18125,12.41625 C126.18125,11.37625 125.78625,10.85625 124.99375,10.85625 C124.605,10.85625 124.29125,10.99875 124.0475,11.285 C123.80625,11.57125 123.68375,11.90875 123.68375,12.295 L123.68375,15.79 L122.37375,15.79 L122.37375,11.5825 C122.37375,11.065 122.3575,10.50375 122.32625,9.89625 L123.4775,9.89625 L123.53875,10.8175 L123.575,10.8175 C123.7275,10.53125 123.955,10.295 124.25375,10.10625 C124.60875,9.88625 125.00625,9.775 125.44125,9.775 C125.99125,9.775 126.44875,9.9525 126.8125,10.30875 C127.265,10.745 127.49125,11.39625 127.49125,12.26125 L127.49125,15.79125 L127.49125,15.79125 Z" id="Shape" fill="#FFFFFF" sketch:type="MSShapeGroup"></path>
                <path d="M136.3075,10.88 L134.865,10.88 L134.865,13.7425 C134.865,14.47 135.12,14.83375 135.62875,14.83375 C135.86375,14.83375 136.0575,14.81375 136.21125,14.7725 L136.24625,15.76625 C135.9875,15.86375 135.6475,15.9125 135.22875,15.9125 C134.71125,15.9125 134.3075,15.755 134.01625,15.44 C133.725,15.125 133.57875,14.595 133.57875,13.85125 L133.57875,10.88 L132.71875,10.88 L132.71875,9.89875 L133.57875,9.89875 L133.57875,8.81875 L134.86375,8.43125 L134.86375,9.8975 L136.30625,9.8975 L136.30625,10.88 L136.3075,10.88 Z" id="Shape" fill="#FFFFFF" sketch:type="MSShapeGroup"></path>
                <path d="M143.3025,15.79125 L141.9925,15.79125 L141.9925,12.44125 C141.9925,11.385 141.5975,10.85625 140.805,10.85625 C140.19875,10.85625 139.7825,11.1625 139.55625,11.775 C139.51625,11.90375 139.495,12.06125 139.495,12.24625 L139.495,15.79 L138.185,15.79 L138.185,7.195 L139.495,7.195 L139.495,10.74625 L139.52,10.74625 C139.9325,10.1 140.5225,9.7775 141.29,9.7775 C141.8325,9.7775 142.28,9.955 142.63625,10.31125 C143.08,10.755 143.3025,11.415 143.3025,12.2875 L143.3025,15.79125 L143.3025,15.79125 Z" id="Shape" fill="#FFFFFF" sketch:type="MSShapeGroup"></path>
                <path d="M150.09375,12.56625 C150.09375,12.80125 150.07625,12.99875 150.045,13.16 L146.11625,13.16 C146.1325,13.7425 146.32125,14.18625 146.685,14.49375 C147.0175,14.76875 147.445,14.90625 147.97,14.90625 C148.5525,14.90625 149.0825,14.81375 149.55875,14.6275 L149.76375,15.5375 C149.20625,15.78 148.5475,15.90125 147.7875,15.90125 C146.875,15.90125 146.15625,15.6325 145.635,15.095 C145.11375,14.5575 144.85375,13.83625 144.85375,12.93125 C144.85375,12.0425 145.095,11.3025 145.58125,10.7125 C146.09,10.0825 146.77625,9.7675 147.64125,9.7675 C148.49,9.7675 149.1325,10.0825 149.56875,10.7125 C149.91875,11.2125 150.09375,11.83125 150.09375,12.56625 L150.09375,12.56625 Z M148.84375,12.2275 C148.8525,11.83875 148.76625,11.50375 148.59,11.22125 C148.3625,10.8575 148.01625,10.675 147.5475,10.675 C147.11875,10.675 146.77125,10.8525 146.50375,11.20875 C146.28625,11.4925 146.1575,11.83125 146.11625,12.2275 L148.84375,12.2275 L148.84375,12.2275 Z" id="Shape" fill="#FFFFFF" sketch:type="MSShapeGroup"></path>
                <path d="M68.56625,38.37 L66.11625,38.37 L65.78875,31.79 C65.6325,28.81875 65.56375,26.60875 65.57875,25.16375 L65.50875,25.16375 C65.01125,27.015 64.39625,28.9975 63.665,31.11375 L61.215,38.23 L59.30125,38.23 L57.06125,31.23 C56.3925,29.11375 55.8475,27.09125 55.4275,25.1625 L55.38,25.1625 C55.3025,27.52625 55.20875,29.775 55.1,31.90625 L54.72625,38.36875 L52.37,38.36875 L53.42,22.64125 L56.66375,22.64125 L58.9275,29.455 C59.4875,31.135 59.9775,32.94125 60.3975,34.87 L60.4675,34.87 C60.965,32.86375 61.49375,31.05875 62.05375,29.455 L64.41125,22.64125 L67.655,22.64125 L68.56625,38.37 L68.56625,38.37 Z" id="Shape" fill="#FFFFFF" sketch:type="MSShapeGroup"></path>
                <path d="M79.60375,38.37 L77.34,38.37 L77.15375,37.06375 L77.08375,37.06375 C76.305,38.10625 75.20125,38.62625 73.77,38.62625 C72.69625,38.62625 71.83375,38.285 71.18,37.60125 C70.58875,36.97875 70.29375,36.21 70.29375,35.29125 C70.29375,33.9075 70.8725,32.8475 72.0325,32.1175 C73.19125,31.385 74.82,31.02875 76.92125,31.04375 L76.92125,30.83375 C76.92125,29.34 76.1375,28.595 74.57,28.595 C73.45125,28.595 72.46625,28.87375 71.6125,29.435 L71.09875,27.7775 C72.155,27.12375 73.4525,26.79875 74.99,26.79875 C77.95625,26.79875 79.44,28.36125 79.44,31.48875 L79.44,35.66625 C79.44,36.8 79.495,37.70125 79.60375,38.37 L79.60375,38.37 Z M76.99,34.47375 L76.99,32.72375 C74.205,32.6775 72.81375,33.43875 72.81375,35.01125 C72.81375,35.6025 72.975,36.04625 73.30125,36.34125 C73.62625,36.63625 74.035,36.78375 74.53,36.78375 C75.0875,36.78375 75.60125,36.61 76.07375,36.25875 C76.545,35.91 76.835,35.4625 76.94375,34.91875 C76.97375,34.79375 76.99,34.645 76.99,34.47375 L76.99,34.47375 Z" id="Shape" fill="#FFFFFF" sketch:type="MSShapeGroup"></path>
                <path d="M90.22125,27.3325 L89.73125,29.24625 C89.09375,28.93625 88.3625,28.78 87.5375,28.78 C86.4325,28.78 85.55875,29.14875 84.9125,29.88875 C84.26625,30.62875 83.945,31.56625 83.945,32.70125 C83.945,33.8975 84.28375,34.8475 84.96,35.5475 C85.63625,36.24625 86.49625,36.5975 87.5375,36.5975 C88.315,36.5975 89.0775,36.44125 89.825,36.13125 L90.175,38.02125 C89.35,38.41 88.30875,38.605 87.04875,38.605 C85.3225,38.605 83.94625,38.08 82.91875,37.03 C81.89125,35.98 81.37875,34.57625 81.37875,32.81875 C81.37875,31.06125 81.93125,29.6175 83.03625,28.49 C84.14,27.3625 85.62625,26.7975 87.4925,26.7975 C88.54875,26.7975 89.45875,26.97625 90.22125,27.3325 L90.22125,27.3325 Z" id="Shape" fill="#FFFFFF" sketch:type="MSShapeGroup"></path>
                <path d="M108.84,38.37 L106.1575,38.37 L104.68625,33.75125 L99.5775,33.75125 L98.1775,38.37 L95.5625,38.37 L100.62625,22.6425 L103.7525,22.6425 L108.84,38.37 L108.84,38.37 Z M104.24375,31.815 L102.91375,27.70625 C102.77375,27.28625 102.50875,26.3 102.12,24.74375 L102.0725,24.74375 C101.91625,25.41375 101.6675,26.4 101.32625,27.70625 L100.02,31.815 L104.24375,31.815 L104.24375,31.815 Z" id="Shape" fill="#FFFFFF" sketch:type="MSShapeGroup"></path>
                <path d="M121.85875,32.56 C121.85875,34.49125 121.33875,36.015 120.29625,37.135 C119.36375,38.13125 118.20375,38.62625 116.82,38.62625 C115.32625,38.62625 114.25375,38.09125 113.6,37.0175 L113.55375,37.0175 L113.55375,42.99125 L111.03375,42.99125 L111.03375,30.7625 C111.03375,29.54875 111.0025,28.30625 110.93875,27.03 L113.155,27.03 L113.29625,28.8275 L113.3425,28.8275 C114.1825,27.475 115.45625,26.79875 117.16875,26.79875 C118.50625,26.79875 119.6225,27.32625 120.51875,28.38625 C121.4125,29.4425 121.85875,30.83375 121.85875,32.56 L121.85875,32.56 Z M119.2925,32.655 C119.2925,31.54875 119.04375,30.64125 118.545,29.9225 C118,29.1775 117.27,28.80375 116.3525,28.80375 C115.73,28.80375 115.16625,29.00875 114.66,29.42125 C114.15375,29.83375 113.8225,30.37375 113.66875,31.0425 C113.59125,31.355 113.55125,31.61125 113.55125,31.81375 L113.55125,33.70375 C113.55125,34.52875 113.8025,35.225 114.31,35.79125 C114.815,36.36 115.4725,36.64375 116.28,36.64375 C117.23,36.64375 117.9675,36.2775 118.49625,35.5475 C119.02875,34.815 119.2925,33.85125 119.2925,32.655 L119.2925,32.655 Z" id="Shape" fill="#FFFFFF" sketch:type="MSShapeGroup"></path>
                <path d="M134.90375,32.56 C134.90375,34.49125 134.38125,36.015 133.34125,37.135 C132.40625,38.13125 131.24875,38.62625 129.8625,38.62625 C128.37125,38.62625 127.29625,38.09125 126.645,37.0175 L126.59625,37.0175 L126.59625,42.99125 L124.07625,42.99125 L124.07625,30.7625 C124.07625,29.54875 124.045,28.30625 123.98375,27.03 L126.2,27.03 L126.33875,28.8275 L126.385,28.8275 C127.225,27.475 128.50125,26.79875 130.2125,26.79875 C131.55,26.79875 132.66625,27.32625 133.56,28.38625 C134.45625,29.4425 134.90375,30.83375 134.90375,32.56 L134.90375,32.56 Z M132.3375,32.655 C132.3375,31.54875 132.08875,30.64125 131.59,29.9225 C131.045,29.1775 130.31375,28.80375 129.395,28.80375 C128.7725,28.80375 128.20875,29.00875 127.7025,29.42125 C127.19625,29.83375 126.8675,30.37375 126.71125,31.0425 C126.63375,31.355 126.59375,31.61125 126.59375,31.81375 L126.59375,33.70375 C126.59375,34.52875 126.8475,35.225 127.3525,35.79125 C127.8575,36.36 128.515,36.64375 129.325,36.64375 C130.2725,36.64375 131.0125,36.2775 131.54125,35.5475 C132.07125,34.815 132.3375,33.85125 132.3375,32.655 L132.3375,32.655 Z" id="Shape" fill="#FFFFFF" sketch:type="MSShapeGroup"></path>
                <path d="M149.48625,33.96125 C149.48625,35.29875 149.02,36.3875 148.09,37.2275 C147.065,38.145 145.63625,38.605 143.805,38.605 C142.1125,38.605 140.75625,38.2775 139.73,37.62375 L140.31375,35.52375 C141.4175,36.1925 142.6325,36.5275 143.95375,36.5275 C144.90375,36.5275 145.64375,36.315 146.1725,35.885 C146.70125,35.455 146.96625,34.88375 146.96625,34.16625 C146.96625,33.52875 146.74875,32.99 146.3125,32.555 C145.8775,32.1175 145.155,31.7125 144.1425,31.33875 C141.39125,30.31125 140.01375,28.8075 140.01375,26.8275 C140.01375,25.53375 140.495,24.475 141.45875,23.65 C142.4225,22.82375 143.7075,22.41125 145.30875,22.41125 C146.74125,22.41125 147.93125,22.66 148.88,23.15875 L148.25,25.2125 C147.36125,24.73 146.3575,24.48875 145.24,24.48875 C144.35125,24.48875 143.66,24.7075 143.1625,25.1425 C142.7425,25.53 142.5325,26.00625 142.5325,26.565 C142.5325,27.1875 142.77375,27.7 143.255,28.105 C143.675,28.47875 144.43625,28.88375 145.5425,29.31875 C146.895,29.86375 147.89125,30.5 148.52875,31.2325 C149.16875,31.96125 149.48625,32.8725 149.48625,33.96125 L149.48625,33.96125 Z" id="Shape" fill="#FFFFFF" sketch:type="MSShapeGroup"></path>
                <path d="M157.81625,28.92 L155.0375,28.92 L155.0375,34.4275 C155.0375,35.82625 155.52875,36.5275 156.51,36.5275 C156.95875,36.5275 157.3325,36.48875 157.62875,36.41 L157.7,38.32375 C157.2025,38.51125 156.5475,38.605 155.74,38.605 C154.74375,38.605 153.9675,38.3025 153.40625,37.69375 C152.8475,37.08875 152.56625,36.0675 152.56625,34.6375 L152.56625,28.92 L150.91125,28.92 L150.91125,27.03 L152.56625,27.03 L152.56625,24.95375 L155.04,24.20625 L155.04,27.02875 L157.81875,27.02875 L157.81875,28.92 L157.81625,28.92 Z" id="Shape" fill="#FFFFFF" sketch:type="MSShapeGroup"></path>
                <path d="M170.345,32.60625 C170.345,34.35 169.8475,35.78 168.85375,36.90125 C167.81125,38.05375 166.4275,38.6275 164.69875,38.6275 C163.03375,38.6275 161.7075,38.07625 160.72125,36.9725 C159.7325,35.86625 159.23875,34.475 159.23875,32.795 C159.23875,31.0375 159.74625,29.59875 160.7675,28.47875 C161.785,27.35875 163.16,26.79875 164.88625,26.79875 C166.55125,26.79875 167.88625,27.35 168.9,28.45375 C169.86375,29.5275 170.345,30.91125 170.345,32.60625 L170.345,32.60625 Z M167.7325,32.68875 C167.7325,31.64375 167.505,30.745 167.05625,29.99875 C166.52625,29.0925 165.7725,28.64125 164.7925,28.64125 C163.77875,28.64125 163.01,29.0925 162.48,29.99875 C162.02875,30.74625 161.80375,31.65875 161.80375,32.735 C161.80375,33.78 162.02875,34.67875 162.48,35.425 C163.025,36.33125 163.78875,36.7825 164.7675,36.7825 C165.73125,36.7825 166.48625,36.32375 167.03125,35.4025 C167.49875,34.64 167.7325,33.73375 167.7325,32.68875 L167.7325,32.68875 Z" id="Shape" fill="#FFFFFF" sketch:type="MSShapeGroup"></path>
                <path d="M178.53625,29.24625 C178.2875,29.2 178.02375,29.1775 177.7425,29.1775 C176.85625,29.1775 176.17,29.5125 175.68875,30.17875 C175.26875,30.7725 175.05875,31.51875 175.05875,32.42 L175.05875,38.37 L172.53875,38.37 L172.56125,30.60125 C172.56125,29.2925 172.53,28.10375 172.46875,27.03 L174.66125,27.03 L174.75625,29.2 L174.825,29.2 C175.09125,28.4525 175.51125,27.855 176.085,27.4025 C176.64625,27 177.2525,26.7975 177.90625,26.7975 C178.14125,26.7975 178.35,26.8125 178.53625,26.84375 L178.53625,29.24625 L178.53625,29.24625 Z" id="Shape" fill="#FFFFFF" sketch:type="MSShapeGroup"></path>
                <path d="M189.80625,32.16375 C189.80625,32.615 189.775,32.99625 189.71375,33.30625 L182.1525,33.30625 C182.18375,34.42625 182.55,35.28125 183.25125,35.875 C183.88875,36.4025 184.71125,36.66875 185.725,36.66875 C186.84375,36.66875 187.86375,36.4875 188.78125,36.13125 L189.17625,37.88125 C188.105,38.3475 186.835,38.58 185.3725,38.58 C183.615,38.58 182.235,38.065 181.2325,37.03 C180.23,35.995 179.72625,34.60625 179.72625,32.865 C179.72625,31.15375 180.1925,29.73 181.1275,28.595 C182.10625,27.38125 183.43,26.77375 185.095,26.77375 C186.72875,26.77375 187.96375,27.38125 188.80375,28.595 C189.47125,29.55875 189.80625,30.7475 189.80625,32.16375 L189.80625,32.16375 Z M187.40375,31.51 C187.41875,30.7625 187.255,30.11875 186.9125,29.57375 C186.4775,28.8725 185.80875,28.52375 184.90625,28.52375 C184.08125,28.52375 183.4125,28.865 182.9,29.54875 C182.48,30.09625 182.23125,30.7475 182.1525,31.50875 L187.40375,31.50875 L187.40375,31.51 Z" id="Shape" fill="#FFFFFF" sketch:type="MSShapeGroup"></path>
            </g>
        </g>
    </g>
</svg>