<?xml version="1.0" encoding="UTF-8" standalone="no"?>
<svg width="57px" height="57px" viewBox="0 0 57 57" version="1.1" xmlns="http://www.w3.org/2000/svg" xmlns:xlink="http://www.w3.org/1999/xlink" xmlns:sketch="http://www.bohemiancoding.com/sketch/ns">
    <!-- Generator: Sketch 3.3.2 (12043) - http://www.bohemiancoding.com/sketch -->
    <title>address-book</title>
    <desc>Created with Sketch.</desc>
    <defs></defs>
    <g id="Welcome" stroke="none" stroke-width="1" fill="none" fill-rule="evenodd" sketch:type="MSPage">
        <g id="Desktop-HD-Copy-4" sketch:type="MSArtboardGroup" transform="translate(-151.000000, -4573.000000)">
            <g id="index-icons" sketch:type="MSLayerGroup" transform="translate(151.000000, 4299.000000)">
                <g id="address-book" transform="translate(0.500000, 274.940000)" sketch:type="MSShapeGroup">
                    <g id="address-book-sync" transform="translate(11.000000, 10.000000)">
                        <rect id="Rectangle-13" fill="#D0D6D8" x="3.5" y="0.06" width="27" height="34"></rect>
                        <circle id="Oval-5" fill="#FFFFFF" cx="27.5" cy="29.5" r="9.5"></circle>
                        <rect id="Rectangle-14" fill="#99A4A8" x="0.5" y="2.06" width="7" height="2" rx="2"></rect>
                        <rect id="Rectangle-14-Copy" fill="#99A4A8" x="0.5" y="9.06" width="7" height="2" rx="2"></rect>
                        <rect id="Rectangle-14-Copy-2" fill="#99A4A8" x="0.5" y="16.06" width="7" height="2" rx="2"></rect>
                        <rect id="Rectangle-14-Copy-3" fill="#99A4A8" x="0.5" y="30.06" width="7" height="2" rx="2"></rect>
                        <rect id="Rectangle-14-Copy-4" fill="#99A4A8" x="0.5" y="23.06" width="7" height="2" rx="2"></rect>
                        <g id="Oval-4-+-Path-10-+-Oval-4-+-Path-10-Copy-2" transform="translate(16.000000, 20.000000)" stroke-linecap="round" stroke="#42CBB4" stroke-width="2">
                            <g id="Oval-4-+-Path-10" transform="translate(2.000000, 0.000000)">
                                <path d="M18.7175119,7.19128045 C17.6861416,3.06027727 13.9504538,0 9.5,0 C5.10313511,0 1.40392659,2.987022 0.320917811,7.04252262" id="Oval-4"></path>
                                <path d="M20,7 L16,7 L16,3" id="Path-10" stroke-linejoin="round" transform="translate(18.000000, 5.000000) rotate(-66.000000) translate(-18.000000, -5.000000) "></path>
                            </g>
                            <g id="Oval-4-+-Path-10-Copy" transform="translate(10.500000, 14.500000) rotate(-180.000000) translate(-10.500000, -14.500000) translate(0.000000, 10.000000)">
                                <path d="M18.7175119,8.19128045 C17.6861416,4.06027727 13.9504538,1 9.5,1 C5.10313511,1 1.40392659,3.987022 0.320917811,8.04252262" id="Oval-4"></path>
                                <path d="M20,8 L16,8 L16,4" id="Path-10" stroke-linejoin="round" transform="translate(18.000000, 6.000000) rotate(-66.000000) translate(-18.000000, -6.000000) "></path>
                            </g>
                        </g>
                    </g>
                    <rect id="Rectangle-2-Copy" stroke="#42CBB4" stroke-width="2" x="0.5" y="0.06" width="55" height="55" rx="8"></rect>
                </g>
            </g>
        </g>
    </g>
</svg>