<?xml version="1.0" encoding="UTF-8" standalone="no"?>
<svg width="57px" height="57px" viewBox="0 0 57 57" version="1.1" xmlns="http://www.w3.org/2000/svg" xmlns:xlink="http://www.w3.org/1999/xlink" xmlns:sketch="http://www.bohemiancoding.com/sketch/ns">
    <!-- Generator: Sketch 3.3.2 (12043) - http://www.bohemiancoding.com/sketch -->
    <title>device-sync</title>
    <desc>Created with Sketch.</desc>
    <defs>
        <rect id="path-1" x="0" y="0" width="55" height="55" rx="8"></rect>
    </defs>
    <g id="Welcome" stroke="none" stroke-width="1" fill="none" fill-rule="evenodd" sketch:type="MSPage">
        <g id="Desktop-HD-Copy-4" sketch:type="MSArtboardGroup" transform="translate(-512.000000, -4847.000000)">
            <g id="index-icons" sketch:type="MSLayerGroup" transform="translate(151.000000, 4299.000000)">
                <g id="device-sync" transform="translate(361.500000, 548.940000)">
                    <g>
                        <mask id="mask-2" sketch:name="Mask" fill="white">
                            <use xlink:href="#path-1"></use>
                        </mask>
                        <use id="Mask" sketch:type="MSShapeGroup" xlink:href="#path-1"></use>
                        <g mask="url(#mask-2)">
                            <g transform="translate(-14.000000, 4.000000)">
                                <g id="Desktop-+-iPad-+-iPhone-4" stroke-width="1" fill="none" sketch:type="MSLayerGroup">
                                    <g sketch:type="MSShapeGroup">
                                        <g id="Desktop">
                                            <rect id="Leg" fill="#D0D6D8" x="18" y="31" width="10" height="5"></rect>
                                            <rect id="Leg-copy" fill="#D0D6D8" x="13" y="35" width="18" height="2"></rect>
                                            <rect id="Frame" fill="#D0D6D8" x="0.5" y="0.06" width="45" height="32" rx="3"></rect>
                                            <rect id="Screen" fill="#FFFFFF" x="3.5" y="3.06" width="40" height="26"></rect>
                                        </g>
                                        <g id="iPad" transform="translate(46.000000, 20.000000) rotate(-270.000000) translate(-46.000000, -20.000000) translate(30.000000, 8.000000)">
                                            <path d="M0.06,2.08481979 C0.06,1.20957827 0.804709289,0.5 1.72333577,0.5 L29.3967915,0.5 C30.3153544,0.5 31.06,1.20957827 31.06,2.08481979 L31.06,21.9152105 C31.06,22.7904217 30.3153544,23.5 29.3967915,23.5 L1.72333577,23.5 C0.804709289,23.5 0.06,22.7903914 0.06,21.9151802 L0.06,2.08481979 Z" id="Frame" fill="#D0D6D8"></path>
                                            <path d="M28.06,21.5 L3.06,21.5 L3.06,2.5 L28.06,2.5 L28.06,2.5 L28.06,21.5 L28.06,21.5 Z" id="Screen" fill="#FFFFFF"></path>
                                        </g>
                                        <g id="iPhone-4" transform="translate(53.000000, 8.000000)">
                                            <path d="M8.5,17.06 L2.5,17.06 C1.22581452,17.06 0.5,16.4004372 0.5,16.06 L0.5,1.06 C0.5,0.719587355 1.22581452,0.06 2.5,0.06 L8.5,0.06 C9.77422604,0.06 10.5,0.719587355 10.5,1.06 L10.5,16.06 C10.5,16.4004372 9.77422604,17.06 8.5,17.06 Z" id="Frame" fill="#D0D6D8"></path>
                                            <path d="M9.5,15.06 L1.5,15.06 L1.5,3.06 L9.5,3.06 L9.5,3.06 L9.5,15.06 L9.5,15.06 Z" id="Screen" fill="#FFFFFF"></path>
                                        </g>
                                    </g>
                                </g>
                                <circle id="Oval-4" fill="#FFFFFF" sketch:type="MSShapeGroup" cx="52" cy="36" r="9"></circle>
                                <g id="Oval-4-+-Path-10-+-Oval-4-+-Path-10-Copy" stroke-width="1" fill="none" sketch:type="MSLayerGroup" transform="translate(41.000000, 27.000000)" stroke-linecap="round">
                                    <g id="Oval-4-+-Path-10" transform="translate(2.000000, 0.000000)" stroke="#42CBB4" stroke-width="2" sketch:type="MSShapeGroup">
                                        <path d="M18.7175119,7.19128045 C17.6861416,3.06027727 13.9504538,0 9.5,0 C5.10313511,0 1.40392659,2.987022 0.320917811,7.04252262" id="Oval-4"></path>
                                        <path d="M20,7 L16,7 L16,3" id="Path-10" stroke-linejoin="round" transform="translate(18.000000, 5.000000) rotate(-66.000000) translate(-18.000000, -5.000000) "></path>
                                    </g>
                                    <g id="Oval-4-+-Path-10-Copy" transform="translate(10.500000, 14.500000) rotate(-180.000000) translate(-10.500000, -14.500000) translate(0.000000, 10.000000)" stroke="#42CBB4" stroke-width="2" sketch:type="MSShapeGroup">
                                        <path d="M18.7175119,8.19128045 C17.6861416,4.06027727 13.9504538,1 9.5,1 C5.10313511,1 1.40392659,3.987022 0.320917811,8.04252262" id="Oval-4"></path>
                                        <path d="M20,8 L16,8 L16,4" id="Path-10" stroke-linejoin="round" transform="translate(18.000000, 6.000000) rotate(-66.000000) translate(-18.000000, -6.000000) "></path>
                                    </g>
                                </g>
                            </g>
                        </g>
                    </g>
                    <rect id="Rectangle-2-Copy-3" stroke="#42CBB4" stroke-width="2" sketch:type="MSShapeGroup" x="0.5" y="0.06" width="55" height="55" rx="8"></rect>
                </g>
            </g>
        </g>
    </g>
</svg>