<?xml version="1.0" encoding="UTF-8" standalone="no"?>
<svg width="57px" height="57px" viewBox="0 0 57 57" version="1.1" xmlns="http://www.w3.org/2000/svg" xmlns:xlink="http://www.w3.org/1999/xlink" xmlns:sketch="http://www.bohemiancoding.com/sketch/ns">
    <!-- Generator: Sketch 3.3.2 (12043) - http://www.bohemiancoding.com/sketch -->
    <title>group-management</title>
    <desc>Created with Sketch.</desc>
    <defs></defs>
    <g id="Welcome" stroke="none" stroke-width="1" fill="none" fill-rule="evenodd" sketch:type="MSPage">
        <g id="Desktop-HD-Copy-4" sketch:type="MSArtboardGroup" transform="translate(-512.000000, -4573.000000)" stroke-width="2">
            <g id="index-icons" sketch:type="MSLayerGroup" transform="translate(151.000000, 4299.000000)">
                <g id="group-management" transform="translate(362.000000, 275.000000)" sketch:type="MSShapeGroup">
                    <rect id="Rectangle-2-Copy-2" stroke="#42CBB4" x="0" y="0" width="55" height="55" rx="8"></rect>
                    <path d="M46.366993,35.1041174 C45.056665,34.5018347 43.2423647,33.4980302 43.2423647,32.0927038 C43.2423647,29.8843339 45.8630207,29.4828121 46.1654041,24.8653113 C46.366993,21.1512346 44.3511038,18.4409624 40.6217087,18.4409624 C36.8923136,18.4409624 34.8764244,21.1512346 35.0780133,24.8653113 C35.3803967,29.4828121 38.0010527,29.8843339 38.0010527,32.0927038 C38.0010527,33.5984106 36.1867524,34.6022151 34.8764244,35.1041174 C34.77563,35.1041174 34.6748355,35.2044979 34.574041,35.2044979 C33.8684798,35.6060197 33.3645075,36.3086828 33.3645075,37.2121069 C33.3645075,38.4166723 34.3724521,39.4204768 35.5819856,39.4204768 L40.5209142,39.4204768 L45.4598428,39.4204768 C46.6693764,39.4204768 47.677321,38.4166723 47.677321,37.2121069 C47.677321,36.2070125 47.475732,35.6060197 46.6693764,35.2044979 C46.5685819,35.2044979 46.4677874,35.1041174 46.366993,35.1041174 Z" id="Shape-Copy-3" stroke="#99A4A8" fill="#99A4A8"></path>
                    <path d="M19.366993,35.1041174 C18.056665,34.5018347 16.2423647,33.4980302 16.2423647,32.0927038 C16.2423647,29.8843339 18.8630207,29.4828121 19.1654041,24.8653113 C19.366993,21.1512346 17.3511038,18.4409624 13.6217087,18.4409624 C9.89231364,18.4409624 7.87642442,21.1512346 8.07801334,24.8653113 C8.38039672,29.4828121 11.0010527,29.8843339 11.0010527,32.0927038 C11.0010527,33.5984106 9.18675241,34.6022151 7.87642442,35.1041174 C7.77562996,35.1041174 7.6748355,35.2044979 7.57404104,35.2044979 C6.86847981,35.6060197 6.3645075,36.3086828 6.3645075,37.2121069 C6.3645075,38.4166723 7.37245211,39.4204768 8.58198565,39.4204768 L13.5209142,39.4204768 L18.4598428,39.4204768 C19.6693764,39.4204768 20.677321,38.4166723 20.677321,37.2121069 C20.677321,36.2070125 20.475732,35.6060197 19.6693764,35.2044979 C19.5685819,35.2044979 19.4677874,35.1041174 19.366993,35.1041174 Z" id="Shape-Copy-4" stroke="#99A4A8" fill="#99A4A8"></path>
                    <path d="M34.6305053,35.1137558 C32.9654806,34.3484393 30.6600617,33.0729119 30.6600617,31.2871734 C30.6600617,28.481013 33.9901112,27.970802 34.3743477,22.1033757 C34.6305053,17.3839241 32.0689288,13.94 27.3300123,13.94 C22.5910958,13.94 20.0295193,17.3839241 20.285677,22.1033757 C20.6699134,27.970802 23.9999629,28.481013 23.9999629,31.2871734 C23.9999629,33.2004646 21.694544,34.4759921 20.0295193,35.1137558 C19.9014405,35.1137558 19.7733617,35.2413085 19.6452829,35.2413085 C18.7487311,35.7515195 18.108337,36.6443888 18.108337,37.7923635 C18.108337,39.3229964 19.3891252,40.5985239 20.9260711,40.5985239 L27.2019335,40.5985239 L33.4777959,40.5985239 C35.0147418,40.5985239 36.29553,39.3229964 36.29553,37.7923635 C36.29553,36.515197 36.0393724,35.7515195 35.0147418,35.2413085 C34.8866629,35.2413085 34.7585841,35.1137558 34.6305053,35.1137558 Z" id="Path" stroke="#D0D6D8" fill="#D0D6D8"></path>
                </g>
            </g>
        </g>
    </g>
</svg>