<?xml version="1.0" encoding="UTF-8" standalone="no"?>
<svg width="57px" height="57px" viewBox="0 0 57 57" version="1.1" xmlns="http://www.w3.org/2000/svg" xmlns:xlink="http://www.w3.org/1999/xlink" xmlns:sketch="http://www.bohemiancoding.com/sketch/ns">
    <!-- Generator: Sketch 3.3.2 (12043) - http://www.bohemiancoding.com/sketch -->
    <title>private-contacts</title>
    <desc>Created with Sketch.</desc>
    <defs></defs>
    <g id="Welcome" stroke="none" stroke-width="1" fill="none" fill-rule="evenodd" sketch:type="MSPage">
        <g id="Desktop-HD-Copy-4" sketch:type="MSArtboardGroup" transform="translate(-872.000000, -4573.000000)">
            <g id="index-icons" sketch:type="MSLayerGroup" transform="translate(151.000000, 4299.000000)">
                <g id="private-contacts" transform="translate(721.500000, 274.940000)" sketch:type="MSShapeGroup">
                    <g transform="translate(6.000000, 8.000000)">
                        <g id="Shape-+-Shape-Copy-+-Shape-Copy-2" stroke-width="2">
                            <g id="Shape-Copy-4-+-Path-Copy" transform="translate(0.123721, 0.104688)">
                                <path d="M14.20243,23.6285393 C12.8102065,22.9847198 10.8825125,21.9116874 10.8825125,20.409442 C10.8825125,18.0487707 13.6669595,17.6195578 13.9882418,12.6836086 C14.20243,8.7133887 12.0605477,5.81620117 8.09806549,5.81620117 C4.13558324,5.81620117 1.99370095,8.7133887 2.20788917,12.6836086 C2.52917152,17.6195578 5.31361851,18.0487707 5.31361851,20.409442 C5.31361851,22.0189907 3.38592444,23.0920231 1.99370095,23.6285393 C1.88660683,23.6285393 1.77951272,23.7358425 1.6724186,23.7358425 C0.922759797,24.1650555 0.387289222,24.9161782 0.387289222,25.8819074 C0.387289222,27.1695463 1.45823037,28.2425787 2.74335975,28.2425787 L7.99097138,28.2425787 L13.238583,28.2425787 C14.5237124,28.2425787 15.5946535,27.1695463 15.5946535,25.8819074 C15.5946535,24.8074961 15.3804653,24.1650555 14.5237124,23.7358425 C14.4166183,23.7358425 14.3095242,23.6285393 14.20243,23.6285393 Z" id="Shape-Copy-4" stroke="#99A4A8" fill="#99A4A8"></path>
                                <path d="M30.4199119,23.6388424 C28.6508231,22.8207455 26.2013156,21.4572506 26.2013156,19.5483578 C26.2013156,16.5486691 29.7394931,16.0032711 30.1477444,9.73119475 C30.4199119,4.68626373 27.6982369,1.00482759 22.6631381,1.00482759 C17.6280393,1.00482759 14.9063643,4.68626373 15.1785318,9.73119475 C15.586783,16.0032711 19.1249606,16.5486691 19.1249606,19.5483578 C19.1249606,21.5936001 16.675453,22.957095 14.9063643,23.6388424 C14.7702805,23.6388424 14.6341968,23.7751919 14.498113,23.7751919 C13.5455268,24.3205898 12.865108,25.2750363 12.865108,26.5021816 C12.865108,28.1383755 14.2259455,29.5018703 15.8589505,29.5018703 L22.5270543,29.5018703 L29.1951581,29.5018703 C30.8281631,29.5018703 32.1890006,28.1383755 32.1890006,26.5021816 C32.1890006,25.1369347 31.9168331,24.3205898 30.8281631,23.7751919 C30.6920794,23.7751919 30.5559956,23.6388424 30.4199119,23.6388424 Z" id="Path" stroke="#D0D6D8" fill="#D0D6D8"></path>
                            </g>
                        </g>
                        <rect id="Rectangle-12" stroke="#42CBB4" stroke-width="2" fill="#FFFFFF" x="25.5" y="19" width="16.5" height="17" rx="8"></rect>
                        <rect id="Rectangle-11" fill="#42CBB4" x="23.5" y="26.06" width="20" height="14" rx="3"></rect>
                    </g>
                    <rect id="Rectangle-2-Copy-2" stroke="#42CBB4" stroke-width="2" x="0.5" y="0.06" width="55" height="55" rx="8"></rect>
                </g>
            </g>
        </g>
    </g>
</svg>