<?xml version="1.0" encoding="UTF-8" standalone="no"?>
<svg width="57px" height="57px" viewBox="0 0 57 57" version="1.1" xmlns="http://www.w3.org/2000/svg" xmlns:xlink="http://www.w3.org/1999/xlink" xmlns:sketch="http://www.bohemiancoding.com/sketch/ns">
    <!-- Generator: Sketch 3.3.2 (12043) - http://www.bohemiancoding.com/sketch -->
    <title>reminders</title>
    <desc>Created with Sketch.</desc>
    <defs></defs>
    <g id="Welcome" stroke="none" stroke-width="1" fill="none" fill-rule="evenodd" sketch:type="MSPage">
        <g id="Desktop-HD-Copy-4" sketch:type="MSArtboardGroup" transform="translate(-1234.000000, -5118.000000)">
            <g id="index-icons" sketch:type="MSLayerGroup" transform="translate(151.000000, 4299.000000)">
                <g id="reminders" transform="translate(1084.000000, 820.000000)" sketch:type="MSShapeGroup">
                    <g id="todo-copy-3" transform="translate(24.000000, 25.940000) rotate(-9.000000) translate(-24.000000, -25.940000) translate(8.500000, 6.940000)">
                        <g id="Rectangle-24-+-Rectangle-24-Copy-+-Rectangle-24-Copy-2-Copy-Copy" stroke="#99A4A8" fill="#D8D8D8">
                            <circle id="Oval-209" cx="4" cy="34" r="4"></circle>
                            <circle id="Oval-209-Copy" cx="4" cy="24.06" r="4"></circle>
                            <circle id="Oval-209-Copy-2" cx="4" cy="14.06" r="4"></circle>
                            <circle id="Oval-209-Copy-3" cx="4" cy="4" r="4"></circle>
                        </g>
                        <path d="M30.5,3.5 L13.992426,3.5" id="Line" stroke="#D0D6D8" stroke-width="2" stroke-linecap="square"></path>
                        <path d="M30.5,14.5 L13.992426,14.5" id="Line-Copy-7" stroke="#D0D6D8" stroke-width="2" stroke-linecap="square"></path>
                        <path d="M30.5,24.5 L13.992426,24.5" id="Line-Copy-9" stroke="#D0D6D8" stroke-width="2" stroke-linecap="square"></path>
                        <path d="M30.5,34.5 L13.992426,34.5" id="Line-Copy-10" stroke="#D0D6D8" stroke-width="2" stroke-linecap="square"></path>
                    </g>
                    <circle id="Oval-213" fill="#FFFFFF" cx="36" cy="39" r="9"></circle>
                    <g id="Oval-4-+-Path-10-+-Oval-4-+-Path-10-Copy-3" transform="translate(24.718576, 29.749187)" stroke-linecap="round" stroke="#42CBB4" stroke-width="2">
                        <g id="Oval-4-+-Path-10" transform="translate(2.000000, 0.000000)">
                            <path d="M18.7175119,7.19128045 C17.6861416,3.06027727 13.9504538,0 9.5,0 C5.10313511,0 1.40392659,2.987022 0.320917811,7.04252262" id="Oval-4"></path>
                            <path d="M20,7 L16,7 L16,3" id="Path-10" stroke-linejoin="round" transform="translate(18.000000, 5.000000) rotate(-66.000000) translate(-18.000000, -5.000000) "></path>
                        </g>
                        <g id="Oval-4-+-Path-10-Copy" transform="translate(10.500000, 14.500000) rotate(-180.000000) translate(-10.500000, -14.500000) translate(0.000000, 10.000000)">
                            <path d="M18.7175119,8.19128045 C17.6861416,4.06027727 13.9504538,1 9.5,1 C5.10313511,1 1.40392659,3.987022 0.320917811,8.04252262" id="Oval-4"></path>
                            <path d="M20,8 L16,8 L16,4" id="Path-10" stroke-linejoin="round" transform="translate(18.000000, 6.000000) rotate(-66.000000) translate(-18.000000, -6.000000) "></path>
                        </g>
                    </g>
                    <path d="M0,7.99747221 C0,3.58059027 3.58748758,0 7.99747221,0 L47.0025278,0 C51.4194097,0 55,3.58748758 55,7.99747221 L55,47.0025278 C55,51.4194097 51.4125124,55 47.0025278,55 L7.99747221,55 C3.58059027,55 0,51.4125124 0,47.0025278 L0,7.99747221 Z" id="Rectangle-2" stroke="#42CBB4" stroke-width="2"></path>
                </g>
            </g>
        </g>
    </g>
</svg>