<?xml version="1.0" encoding="UTF-8" standalone="no"?>
<svg width="57px" height="57px" viewBox="0 0 57 57" version="1.1" xmlns="http://www.w3.org/2000/svg" xmlns:xlink="http://www.w3.org/1999/xlink" xmlns:sketch="http://www.bohemiancoding.com/sketch/ns">
    <!-- Generator: Sketch 3.3.2 (12043) - http://www.bohemiancoding.com/sketch -->
    <title>smart-groups</title>
    <desc>Created with Sketch.</desc>
    <defs></defs>
    <g id="Welcome" stroke="none" stroke-width="1" fill="none" fill-rule="evenodd" sketch:type="MSPage">
        <g id="Desktop-HD-Copy-4" sketch:type="MSArtboardGroup" transform="translate(-151.000000, -5118.000000)">
            <g id="index-icons" sketch:type="MSLayerGroup" transform="translate(151.000000, 4299.000000)">
                <g id="smart-groups" transform="translate(0.500000, 819.940000)" sketch:type="MSShapeGroup">
                    <g id="Shape-Copy-4-+-Path-Copy-Copy" transform="translate(9.593023, 12.500000)" stroke-width="2">
                        <path d="M36.2347546,19.1441835 C35.0767903,18.6119337 33.4734552,17.7248506 33.4734552,16.4829343 C33.4734552,14.5313516 35.7893837,14.1765183 36.0566063,10.0959363 C36.2347546,6.81372892 34.4532711,4.41860465 31.1575266,4.41860465 C27.8617822,4.41860465 26.0802987,6.81372892 26.258447,10.0959363 C26.5256695,14.1765183 28.8415981,14.5313516 28.8415981,16.4829343 C28.8415981,17.8135589 27.2382629,18.700642 26.0802987,19.1441835 C25.9912245,19.1441835 25.9021503,19.2328918 25.8130761,19.2328918 C25.1895569,19.587725 24.744186,20.2086832 24.744186,21.0070579 C24.744186,22.0715576 25.6349278,22.9586407 26.7038179,22.9586407 L31.0684525,22.9586407 L35.433087,22.9586407 C36.5019771,22.9586407 37.3927189,22.0715576 37.3927189,21.0070579 C37.3927189,20.118835 37.2145705,19.587725 36.5019771,19.2328918 C36.412903,19.2328918 36.3238288,19.1441835 36.2347546,19.1441835 Z" id="Shape-Copy-5" stroke="#99A4A8" fill="#99A4A8"></path>
                        <path d="M11.8126915,19.5338712 C10.6547272,19.0016214 9.05139205,18.1145383 9.05139205,16.872622 C9.05139205,14.9210393 11.3673206,14.566206 11.6345431,10.4856239 C11.8126915,7.20341661 10.031208,4.80829234 6.7354635,4.80829234 C3.43971903,4.80829234 1.65823553,7.20341661 1.83638388,10.4856239 C2.10360641,14.566206 4.41953495,14.9210393 4.41953495,16.872622 C4.41953495,18.2032466 2.81619981,19.0903297 1.65823553,19.5338712 C1.56916136,19.5338712 1.48008718,19.6225795 1.39101301,19.6225795 C0.767493784,19.9774127 0.32212291,20.5983709 0.32212291,21.3967456 C0.32212291,22.4612453 1.21286466,23.3483284 2.28175476,23.3483284 L6.64638933,23.3483284 L11.0110239,23.3483284 C12.079914,23.3483284 12.9706557,22.4612453 12.9706557,21.3967456 C12.9706557,20.5085227 12.7925074,19.9774127 12.079914,19.6225795 C11.9908398,19.6225795 11.9017656,19.5338712 11.8126915,19.5338712 Z" id="Shape-Copy-4" stroke="#99A4A8" fill="#99A4A8"></path>
                        <path d="M25.3013768,19.5423888 C23.8299596,18.8660627 21.7926127,17.7388523 21.7926127,16.1607579 C21.7926127,13.6808952 24.7354471,13.2300111 25.0750049,8.04484367 C25.3013768,3.87416552 23.037658,0.830697674 18.8497783,0.830697674 C14.6618986,0.830697674 12.3981799,3.87416552 12.6245517,8.04484367 C12.9641096,13.2300111 15.9069439,13.6808952 15.9069439,16.1607579 C15.9069439,17.8515734 13.8695971,18.9787837 12.3981799,19.5423888 C12.2849939,19.5423888 12.171808,19.6551099 12.0586221,19.6551099 C11.2663205,20.105994 10.7003908,20.8950412 10.7003908,21.9095305 C10.7003908,23.2621829 11.8322502,24.3893932 13.1904814,24.3893932 L18.7365924,24.3893932 L24.2827033,24.3893932 C25.6409346,24.3893932 26.772794,23.2621829 26.772794,21.9095305 C26.772794,20.7808718 26.5464221,20.105994 25.6409346,19.6551099 C25.5277487,19.6551099 25.4145627,19.5423888 25.3013768,19.5423888 Z" id="Path" stroke="#D0D6D8" fill="#D0D6D8"></path>
                    </g>
                    <g id="Oval-206-+-Path-5894" transform="translate(29.593023, 27.500000)">
                        <circle id="Oval-206" fill="#42CBB4" cx="10.5" cy="10.5" r="10.5"></circle>
                        <path d="M16.3078238,0 L2.71002562,11.5101335 L9.8321177,11.5101335 L3.41743867,20 L17.519752,9.06398562 L9.93235628,9.06398562 L16.3078238,0 Z" id="Path-5894" fill="#FFFFFF"></path>
                    </g>
                    <rect id="Rectangle-2-Copy-4" stroke="#42CBB4" stroke-width="2" x="0.5" y="0.06" width="55" height="55" rx="8"></rect>
                </g>
            </g>
        </g>
    </g>
</svg>